<svg version="1.0" preserveAspectRatio="xMidYMid meet" viewBox="48.54986244841815 51.48 307.6774415405777 198.31500000000003" zoomAndPan="magnify" xmlns:xlink="http://www.w3.org/1999/xlink" xmlns="http://www.w3.org/2000/svg" style="max-height: 500px" width="307.6774415405777" height="198.31500000000003"><defs><g/><clipPath id="c0588098a9"><path clip-rule="nonzero" d="M 52 54 L 164 54 L 164 166 L 52 166 Z M 52 54"/></clipPath><clipPath id="5ef25cedb4"><path clip-rule="nonzero" d="M 0 109.480469 L 105.195312 -0.0507812 L 163.980469 56.40625 L 58.785156 165.9375 Z M 0 109.480469"/></clipPath><clipPath id="68fd5db99a"><path clip-rule="nonzero" d="M 52.570312 54.742188 L 163.921875 56.464844 L 58.785156 165.9375 Z M 52.570312 54.742188"/></clipPath><clipPath id="4137f1ee1b"><path clip-rule="nonzero" d="M 57 135 L 168 135 L 168 247 L 57 247 Z M 57 135"/></clipPath><clipPath id="78b217b29b"><path clip-rule="nonzero" d="M 4.3125 188.996094 L 110.511719 82.792969 L 167.871094 140.152344 L 61.667969 246.351562 Z M 4.3125 188.996094"/></clipPath><clipPath id="1f71ae5c9b"><path clip-rule="nonzero" d="M 57.324219 135.980469 L 167.695312 140.328125 L 61.667969 246.351562 Z M 57.324219 135.980469"/></clipPath></defs><g clip-path="url(#c0588098a9)"><g clip-path="url(#5ef25cedb4)"><g clip-path="url(#68fd5db99a)"><path fill-rule="nonzero" fill-opacity="1" d="M 0 109.480469 L 105.195312 -0.0507812 L 163.980469 56.40625 L 58.785156 165.9375 Z M 0 109.480469" fill="#8c52ff"/></g></g></g><g clip-path="url(#4137f1ee1b)"><g clip-path="url(#78b217b29b)"><g clip-path="url(#1f71ae5c9b)"><path fill-rule="nonzero" fill-opacity="1" d="M 4.3125 188.996094 L 110.289062 83.019531 L 167.644531 140.375 L 61.667969 246.351562 Z M 4.3125 188.996094" fill="#8c52ff"/></g></g></g><g fill-opacity="1" fill="#ffffff"><g transform="translate(79.300233, 127.05816)"><g><path d="M 50.875 -20.046875 C 50.875 -13.191406 48.5625 -7.992188 43.9375 -4.453125 C 39.3125 -0.910156 32.519531 0.859375 23.5625 0.859375 C 19.957031 0.859375 16.613281 0.597656 13.53125 0.078125 C 10.445312 -0.429688 7.363281 -1.226562 4.28125 -2.3125 L 4.28125 -18.25 C 7.082031 -16.644531 10.164062 -15.414062 13.53125 -14.5625 C 16.90625 -13.707031 20.332031 -13.28125 23.8125 -13.28125 C 26.550781 -13.28125 28.601562 -13.707031 29.96875 -14.5625 C 31.34375 -15.414062 32.03125 -16.703125 32.03125 -18.421875 C 32.03125 -19.617188 31.472656 -20.71875 30.359375 -21.71875 C 29.242188 -22.71875 26.71875 -24.015625 22.78125 -25.609375 C 19.007812 -27.210938 16.222656 -28.539062 14.421875 -29.59375 C 12.628906 -30.644531 11.078125 -31.800781 9.765625 -33.0625 C 7.941406 -34.832031 6.570312 -36.84375 5.65625 -39.09375 C 4.738281 -41.351562 4.28125 -43.882812 4.28125 -46.6875 C 4.28125 -52.851562 6.535156 -57.648438 11.046875 -61.078125 C 15.554688 -64.503906 21.867188 -66.21875 29.984375 -66.21875 C 33.296875 -66.21875 36.550781 -65.882812 39.75 -65.21875 C 42.945312 -64.5625 45.710938 -63.632812 48.046875 -62.4375 L 48.046875 -45.65625 C 45.828125 -47.539062 43.0625 -49.039062 39.75 -50.15625 C 36.4375 -51.269531 33.09375 -51.828125 29.71875 -51.828125 C 27.320312 -51.828125 25.550781 -51.5 24.40625 -50.84375 C 23.269531 -50.1875 22.703125 -49.171875 22.703125 -47.796875 C 22.703125 -46.484375 23.3125 -45.269531 24.53125 -44.15625 C 25.757812 -43.039062 28.488281 -41.570312 32.71875 -39.75 C 36.3125 -38.207031 38.976562 -36.9375 40.71875 -35.9375 C 42.46875 -34.9375 43.96875 -33.894531 45.21875 -32.8125 C 47.101562 -31.09375 48.515625 -29.175781 49.453125 -27.0625 C 50.398438 -24.945312 50.875 -22.609375 50.875 -20.046875 Z M 50.875 -20.046875"/></g></g></g><g fill-opacity="1" fill="#ffffff"><g transform="translate(134.449219, 127.05816)"><g><path d="M 23.984375 -1.28125 L 23.984375 19.1875 L 6.859375 19.1875 L 6.859375 -46.6875 L 23.984375 -46.6875 L 23.984375 -43.25 L 24.234375 -43.078125 C 25.609375 -44.566406 27.296875 -45.695312 29.296875 -46.46875 C 31.296875 -47.238281 33.492188 -47.625 35.890625 -47.625 C 41.203125 -47.625 45.484375 -45.4375 48.734375 -41.0625 C 51.992188 -36.695312 53.625 -31.03125 53.625 -24.0625 C 53.625 -16.582031 51.894531 -10.546875 48.4375 -5.953125 C 44.976562 -1.359375 40.335938 0.9375 34.515625 0.9375 C 32.859375 0.9375 31.128906 0.707031 29.328125 0.25 C 27.535156 -0.195312 25.894531 -0.796875 24.40625 -1.546875 Z M 28.953125 -34.609375 C 27.867188 -34.609375 26.894531 -34.390625 26.03125 -33.953125 C 25.175781 -33.523438 24.492188 -32.914062 23.984375 -32.125 L 23.984375 -13.453125 C 24.554688 -13.046875 25.253906 -12.742188 26.078125 -12.546875 C 26.910156 -12.347656 27.753906 -12.25 28.609375 -12.25 C 31.117188 -12.25 33.054688 -13.234375 34.421875 -15.203125 C 35.796875 -17.171875 36.484375 -19.925781 36.484375 -23.46875 C 36.484375 -26.894531 35.828125 -29.609375 34.515625 -31.609375 C 33.203125 -33.609375 31.347656 -34.609375 28.953125 -34.609375 Z M 28.953125 -34.609375"/></g></g></g><g fill-opacity="1" fill="#ffffff"><g transform="translate(191.482195, 127.05816)"><g><path d="M 51.3125 -23.296875 C 51.3125 -15.816406 49.164062 -9.921875 44.875 -5.609375 C 40.59375 -1.296875 34.742188 0.859375 27.328125 0.859375 C 19.898438 0.859375 14.054688 -1.296875 9.796875 -5.609375 C 5.546875 -9.921875 3.421875 -15.816406 3.421875 -23.296875 C 3.421875 -30.773438 5.546875 -36.6875 9.796875 -41.03125 C 14.054688 -45.375 19.898438 -47.546875 27.328125 -47.546875 C 34.742188 -47.546875 40.59375 -45.375 44.875 -41.03125 C 49.164062 -36.6875 51.3125 -30.773438 51.3125 -23.296875 Z M 34.09375 -23.296875 C 34.09375 -27.066406 33.535156 -29.878906 32.421875 -31.734375 C 31.304688 -33.585938 29.609375 -34.515625 27.328125 -34.515625 C 25.097656 -34.515625 23.425781 -33.585938 22.3125 -31.734375 C 21.195312 -29.878906 20.640625 -27.066406 20.640625 -23.296875 C 20.640625 -19.523438 21.195312 -16.722656 22.3125 -14.890625 C 23.425781 -13.066406 25.097656 -12.15625 27.328125 -12.15625 C 29.609375 -12.15625 31.304688 -13.066406 32.421875 -14.890625 C 33.535156 -16.722656 34.09375 -19.523438 34.09375 -23.296875 Z M 34.09375 -23.296875"/></g></g></g><g fill-opacity="1" fill="#ffffff"><g transform="translate(246.202997, 127.05816)"><g><path d="M 23.984375 -25.015625 L 23.984375 0 L 6.859375 0 L 6.859375 -46.6875 L 23.984375 -46.6875 L 23.984375 -41.109375 L 24.328125 -40.859375 C 26.441406 -43.316406 28.453125 -45.054688 30.359375 -46.078125 C 32.273438 -47.109375 34.316406 -47.625 36.484375 -47.625 C 37.054688 -47.625 37.65625 -47.59375 38.28125 -47.53125 C 38.914062 -47.476562 39.601562 -47.367188 40.34375 -47.203125 L 40.34375 -29.640625 C 39.257812 -29.804688 38.503906 -29.90625 38.078125 -29.9375 C 37.648438 -29.96875 37.265625 -29.984375 36.921875 -29.984375 C 33.609375 -29.984375 30.9375 -29.597656 28.90625 -28.828125 C 26.882812 -28.054688 25.242188 -26.785156 23.984375 -25.015625 Z M 23.984375 -25.015625"/></g></g></g><g fill-opacity="1" fill="#ffffff"><g transform="translate(288.249808, 127.05816)"><g><path d="M 40.265625 -1.109375 C 38.378906 -0.421875 36.40625 0.078125 34.34375 0.390625 C 32.289062 0.703125 30.179688 0.859375 28.015625 0.859375 C 22.179688 0.859375 17.59375 -0.664062 14.25 -3.71875 C 10.914062 -6.78125 9.25 -10.992188 9.25 -16.359375 L 9.25 -33.828125 L 1.71875 -33.828125 L 1.71875 -46.6875 L 9.25 -46.6875 L 9.25 -59.015625 L 26.375 -59.015625 L 26.375 -46.6875 L 39.40625 -46.6875 L 39.40625 -33.828125 L 26.375 -33.828125 L 26.375 -21.84375 C 26.375 -18.757812 26.84375 -16.660156 27.78125 -15.546875 C 28.726562 -14.429688 30.347656 -13.875 32.640625 -13.875 C 33.609375 -13.875 34.734375 -13.972656 36.015625 -14.171875 C 37.304688 -14.367188 38.722656 -14.671875 40.265625 -15.078125 Z M 40.265625 -1.109375"/></g></g></g><g fill-opacity="1" fill="#ffffff"><g transform="translate(331.098985, 127.05816)"><g/></g></g><g fill-opacity="1" fill="#ffffff"><g transform="translate(77.54569, 214.091405)"><g><path d="M 50.875 -20.046875 C 50.875 -13.191406 48.5625 -7.992188 43.9375 -4.453125 C 39.3125 -0.910156 32.519531 0.859375 23.5625 0.859375 C 19.957031 0.859375 16.613281 0.597656 13.53125 0.078125 C 10.445312 -0.429688 7.363281 -1.226562 4.28125 -2.3125 L 4.28125 -18.25 C 7.082031 -16.644531 10.164062 -15.414062 13.53125 -14.5625 C 16.90625 -13.707031 20.332031 -13.28125 23.8125 -13.28125 C 26.550781 -13.28125 28.601562 -13.707031 29.96875 -14.5625 C 31.34375 -15.414062 32.03125 -16.703125 32.03125 -18.421875 C 32.03125 -19.617188 31.472656 -20.71875 30.359375 -21.71875 C 29.242188 -22.71875 26.71875 -24.015625 22.78125 -25.609375 C 19.007812 -27.210938 16.222656 -28.539062 14.421875 -29.59375 C 12.628906 -30.644531 11.078125 -31.800781 9.765625 -33.0625 C 7.941406 -34.832031 6.570312 -36.84375 5.65625 -39.09375 C 4.738281 -41.351562 4.28125 -43.882812 4.28125 -46.6875 C 4.28125 -52.851562 6.535156 -57.648438 11.046875 -61.078125 C 15.554688 -64.503906 21.867188 -66.21875 29.984375 -66.21875 C 33.296875 -66.21875 36.550781 -65.882812 39.75 -65.21875 C 42.945312 -64.5625 45.710938 -63.632812 48.046875 -62.4375 L 48.046875 -45.65625 C 45.828125 -47.539062 43.0625 -49.039062 39.75 -50.15625 C 36.4375 -51.269531 33.09375 -51.828125 29.71875 -51.828125 C 27.320312 -51.828125 25.550781 -51.5 24.40625 -50.84375 C 23.269531 -50.1875 22.703125 -49.171875 22.703125 -47.796875 C 22.703125 -46.484375 23.3125 -45.269531 24.53125 -44.15625 C 25.757812 -43.039062 28.488281 -41.570312 32.71875 -39.75 C 36.3125 -38.207031 38.976562 -36.9375 40.71875 -35.9375 C 42.46875 -34.9375 43.96875 -33.894531 45.21875 -32.8125 C 47.101562 -31.09375 48.515625 -29.175781 49.453125 -27.0625 C 50.398438 -24.945312 50.875 -22.609375 50.875 -20.046875 Z M 50.875 -20.046875"/></g></g></g><g fill-opacity="1" fill="#ffffff"><g transform="translate(132.694676, 214.091405)"><g><path d="M 23.984375 -32.296875 L 23.984375 0 L 6.859375 0 L 6.859375 -46.6875 L 23.984375 -46.6875 L 23.984375 -42.828125 L 24.328125 -42.578125 C 26.492188 -44.335938 28.644531 -45.617188 30.78125 -46.421875 C 32.925781 -47.222656 35.226562 -47.625 37.6875 -47.625 C 40.144531 -47.625 42.285156 -47.195312 44.109375 -46.34375 C 45.941406 -45.488281 47.425781 -44.203125 48.5625 -42.484375 C 50.851562 -44.203125 53.28125 -45.488281 55.84375 -46.34375 C 58.414062 -47.195312 61.160156 -47.625 64.078125 -47.625 C 68.753906 -47.625 72.289062 -46.296875 74.6875 -43.640625 C 77.09375 -40.984375 78.296875 -37.054688 78.296875 -31.859375 L 78.296875 0 L 61.15625 0 L 61.15625 -28.53125 C 61.15625 -30.695312 60.882812 -32.207031 60.34375 -33.0625 C 59.800781 -33.914062 58.84375 -34.34375 57.46875 -34.34375 C 56.5 -34.34375 55.5 -34.171875 54.46875 -33.828125 C 53.445312 -33.484375 52.335938 -32.972656 51.140625 -32.296875 L 51.140625 0 L 34 0 L 34 -28.53125 C 34 -30.695312 33.726562 -32.207031 33.1875 -33.0625 C 32.644531 -33.914062 31.660156 -34.34375 30.234375 -34.34375 C 29.148438 -34.34375 28.035156 -34.15625 26.890625 -33.78125 C 25.753906 -33.414062 24.785156 -32.921875 23.984375 -32.296875 Z M 23.984375 -32.296875"/></g></g></g><g fill-opacity="1" fill="#ffffff"><g transform="translate(217.815956, 214.091405)"><g><path d="M 31 -4.546875 C 28.945312 -2.484375 26.960938 -1.050781 25.046875 -0.25 C 23.140625 0.539062 20.929688 0.9375 18.421875 0.9375 C 14.023438 0.9375 10.566406 -0.390625 8.046875 -3.046875 C 5.535156 -5.703125 4.28125 -9.253906 4.28125 -13.703125 C 4.28125 -18.617188 6.09375 -22.273438 9.71875 -24.671875 C 13.34375 -27.066406 18.867188 -28.265625 26.296875 -28.265625 L 29.296875 -28.265625 C 29.347656 -28.441406 29.375 -28.628906 29.375 -28.828125 C 29.375 -29.023438 29.375 -29.46875 29.375 -30.15625 C 29.375 -31.695312 28.734375 -32.820312 27.453125 -33.53125 C 26.171875 -34.25 24.1875 -34.609375 21.5 -34.609375 C 19.269531 -34.609375 17.179688 -34.421875 15.234375 -34.046875 C 13.296875 -33.671875 11.015625 -33 8.390625 -32.03125 L 8.390625 -45.484375 C 10.734375 -46.171875 13.21875 -46.6875 15.84375 -47.03125 C 18.46875 -47.375 21.238281 -47.546875 24.15625 -47.546875 C 32.144531 -47.546875 37.835938 -45.832031 41.234375 -42.40625 C 44.640625 -38.976562 46.34375 -33.378906 46.34375 -25.609375 L 46.34375 0 L 33.0625 0 L 31.34375 -4.453125 Z M 27.40625 -19.53125 C 25.0625 -19.53125 23.363281 -19.15625 22.3125 -18.40625 C 21.257812 -17.664062 20.734375 -16.382812 20.734375 -14.5625 C 20.734375 -13.1875 21.070312 -12.128906 21.75 -11.390625 C 22.4375 -10.648438 23.378906 -10.28125 24.578125 -10.28125 C 25.835938 -10.28125 27.082031 -10.578125 28.3125 -11.171875 C 29.539062 -11.773438 30.382812 -12.476562 30.84375 -13.28125 L 30.84375 -19.53125 Z M 27.40625 -19.53125"/></g></g></g><g fill-opacity="1" fill="#ffffff"><g transform="translate(270.138976, 214.091405)"><g><path d="M 23.984375 -25.015625 L 23.984375 0 L 6.859375 0 L 6.859375 -46.6875 L 23.984375 -46.6875 L 23.984375 -41.109375 L 24.328125 -40.859375 C 26.441406 -43.316406 28.453125 -45.054688 30.359375 -46.078125 C 32.273438 -47.109375 34.316406 -47.625 36.484375 -47.625 C 37.054688 -47.625 37.65625 -47.59375 38.28125 -47.53125 C 38.914062 -47.476562 39.601562 -47.367188 40.34375 -47.203125 L 40.34375 -29.640625 C 39.257812 -29.804688 38.503906 -29.90625 38.078125 -29.9375 C 37.648438 -29.96875 37.265625 -29.984375 36.921875 -29.984375 C 33.609375 -29.984375 30.9375 -29.597656 28.90625 -28.828125 C 26.882812 -28.054688 25.242188 -26.785156 23.984375 -25.015625 Z M 23.984375 -25.015625"/></g></g></g><g fill-opacity="1" fill="#ffffff"><g transform="translate(312.185787, 214.091405)"><g><path d="M 40.265625 -1.109375 C 38.378906 -0.421875 36.40625 0.078125 34.34375 0.390625 C 32.289062 0.703125 30.179688 0.859375 28.015625 0.859375 C 22.179688 0.859375 17.59375 -0.664062 14.25 -3.71875 C 10.914062 -6.78125 9.25 -10.992188 9.25 -16.359375 L 9.25 -33.828125 L 1.71875 -33.828125 L 1.71875 -46.6875 L 9.25 -46.6875 L 9.25 -59.015625 L 26.375 -59.015625 L 26.375 -46.6875 L 39.40625 -46.6875 L 39.40625 -33.828125 L 26.375 -33.828125 L 26.375 -21.84375 C 26.375 -18.757812 26.84375 -16.660156 27.78125 -15.546875 C 28.726562 -14.429688 30.347656 -13.875 32.640625 -13.875 C 33.609375 -13.875 34.734375 -13.972656 36.015625 -14.171875 C 37.304688 -14.367188 38.722656 -14.671875 40.265625 -15.078125 Z M 40.265625 -1.109375"/></g></g></g></svg>