<svg version="1.0" preserveAspectRatio="xMidYMid meet" viewBox="48.39766483516483 51.347998416 306.71291208791206 197.80649389800004" zoomAndPan="magnify" xmlns:xlink="http://www.w3.org/1999/xlink" xmlns="http://www.w3.org/2000/svg" style="max-height: 500px" width="306.71291208791206" height="197.80649389800004"><defs><g/><clipPath id="d06c409d11"><path clip-rule="nonzero" d="M 52 54 L 164 54 L 164 166 L 52 166 Z M 52 54"/></clipPath><clipPath id="6997a2354a"><path clip-rule="nonzero" d="M 0.00390625 109.304688 L 104.996094 -0.015625 L 163.667969 56.332031 L 58.671875 165.652344 Z M 0.00390625 109.304688"/></clipPath><clipPath id="b8dab4788a"><path clip-rule="nonzero" d="M 52.472656 54.675781 L 163.609375 56.390625 L 58.671875 165.652344 Z M 52.472656 54.675781"/></clipPath><clipPath id="81dfb1e9fb"><path clip-rule="nonzero" d="M 57 135 L 168 135 L 168 246 L 57 246 Z M 57 135"/></clipPath><clipPath id="4237231b52"><path clip-rule="nonzero" d="M 4.304688 188.671875 L 110.304688 82.671875 L 167.550781 139.921875 L 61.554688 245.917969 Z M 4.304688 188.671875"/></clipPath><clipPath id="822e7e0ff0"><path clip-rule="nonzero" d="M 57.21875 135.761719 L 167.378906 140.09375 L 61.554688 245.917969 Z M 57.21875 135.761719"/></clipPath></defs><g clip-path="url(#d06c409d11)"><g clip-path="url(#6997a2354a)"><g clip-path="url(#b8dab4788a)"><path fill-rule="nonzero" fill-opacity="1" d="M 0.00390625 109.304688 L 104.996094 -0.015625 L 163.667969 56.332031 L 58.671875 165.652344 Z M 0.00390625 109.304688" fill="#8c52ff"/></g></g></g><g clip-path="url(#81dfb1e9fb)"><g clip-path="url(#4237231b52)"><g clip-path="url(#822e7e0ff0)"><path fill-rule="nonzero" fill-opacity="1" d="M 4.304688 188.671875 L 110.082031 82.898438 L 167.328125 140.144531 L 61.554688 245.917969 Z M 4.304688 188.671875" fill="#8c52ff"/></g></g></g><g fill-opacity="1" fill="#212636"><g transform="translate(79.148747, 126.854281)"><g><path d="M 50.78125 -20 C 50.78125 -13.164062 48.472656 -7.976562 43.859375 -4.4375 C 39.242188 -0.90625 32.460938 0.859375 23.515625 0.859375 C 19.921875 0.859375 16.582031 0.597656 13.5 0.078125 C 10.425781 -0.429688 7.351562 -1.226562 4.28125 -2.3125 L 4.28125 -18.21875 C 7.070312 -16.613281 10.144531 -15.382812 13.5 -14.53125 C 16.863281 -13.675781 20.285156 -13.25 23.765625 -13.25 C 26.503906 -13.25 28.554688 -13.675781 29.921875 -14.53125 C 31.296875 -15.382812 31.984375 -16.664062 31.984375 -18.375 C 31.984375 -19.570312 31.425781 -20.671875 30.3125 -21.671875 C 29.195312 -22.671875 26.675781 -23.96875 22.75 -25.5625 C 18.976562 -27.15625 16.195312 -28.476562 14.40625 -29.53125 C 12.613281 -30.59375 11.0625 -31.75 9.75 -33 C 7.925781 -34.769531 6.554688 -36.78125 5.640625 -39.03125 C 4.734375 -41.28125 4.28125 -43.800781 4.28125 -46.59375 C 4.28125 -52.75 6.53125 -57.535156 11.03125 -60.953125 C 15.53125 -64.378906 21.828125 -66.09375 29.921875 -66.09375 C 33.234375 -66.09375 36.484375 -65.765625 39.671875 -65.109375 C 42.859375 -64.453125 45.625 -63.523438 47.96875 -62.328125 L 47.96875 -45.578125 C 45.738281 -47.453125 42.972656 -48.945312 39.671875 -50.0625 C 36.367188 -51.175781 33.035156 -51.734375 29.671875 -51.734375 C 27.273438 -51.734375 25.503906 -51.40625 24.359375 -50.75 C 23.222656 -50.09375 22.65625 -49.078125 22.65625 -47.703125 C 22.65625 -46.398438 23.265625 -45.191406 24.484375 -44.078125 C 25.710938 -42.960938 28.4375 -41.492188 32.65625 -39.671875 C 36.25 -38.128906 38.914062 -36.859375 40.65625 -35.859375 C 42.394531 -34.867188 43.890625 -33.832031 45.140625 -32.75 C 47.023438 -31.039062 48.4375 -29.128906 49.375 -27.015625 C 50.3125 -24.910156 50.78125 -22.570312 50.78125 -20 Z M 50.78125 -20"/></g></g></g><g fill-opacity="1" fill="#212636"><g transform="translate(134.192376, 126.854281)"><g><path d="M 23.9375 -1.28125 L 23.9375 19.15625 L 6.84375 19.15625 L 6.84375 -46.59375 L 23.9375 -46.59375 L 23.9375 -43.171875 L 24.203125 -43 C 25.566406 -44.488281 27.242188 -45.613281 29.234375 -46.375 C 31.234375 -47.144531 33.429688 -47.53125 35.828125 -47.53125 C 41.128906 -47.53125 45.398438 -45.347656 48.640625 -40.984375 C 51.890625 -36.628906 53.515625 -30.976562 53.515625 -24.03125 C 53.515625 -16.5625 51.789062 -10.53125 48.34375 -5.9375 C 44.894531 -1.351562 40.265625 0.9375 34.453125 0.9375 C 32.804688 0.9375 31.082031 0.707031 29.28125 0.25 C 27.488281 -0.195312 25.851562 -0.789062 24.375 -1.53125 Z M 28.90625 -34.546875 C 27.820312 -34.546875 26.847656 -34.332031 25.984375 -33.90625 C 25.128906 -33.476562 24.445312 -32.863281 23.9375 -32.0625 L 23.9375 -13.421875 C 24.507812 -13.023438 25.207031 -12.722656 26.03125 -12.515625 C 26.863281 -12.316406 27.707031 -12.21875 28.5625 -12.21875 C 31.0625 -12.21875 32.992188 -13.203125 34.359375 -15.171875 C 35.734375 -17.140625 36.421875 -19.890625 36.421875 -23.421875 C 36.421875 -26.847656 35.765625 -29.554688 34.453125 -31.546875 C 33.140625 -33.546875 31.289062 -34.546875 28.90625 -34.546875 Z M 28.90625 -34.546875"/></g></g></g><g fill-opacity="1" fill="#212636"><g transform="translate(191.116398, 126.854281)"><g><path d="M 51.21875 -23.25 C 51.21875 -15.789062 49.078125 -9.90625 44.796875 -5.59375 C 40.523438 -1.289062 34.6875 0.859375 27.28125 0.859375 C 19.863281 0.859375 14.03125 -1.289062 9.78125 -5.59375 C 5.539062 -9.90625 3.421875 -15.789062 3.421875 -23.25 C 3.421875 -30.71875 5.539062 -36.617188 9.78125 -40.953125 C 14.03125 -45.285156 19.863281 -47.453125 27.28125 -47.453125 C 34.6875 -47.453125 40.523438 -45.285156 44.796875 -40.953125 C 49.078125 -36.617188 51.21875 -30.71875 51.21875 -23.25 Z M 34.03125 -23.25 C 34.03125 -27.019531 33.472656 -29.828125 32.359375 -31.671875 C 31.242188 -33.523438 29.550781 -34.453125 27.28125 -34.453125 C 25.050781 -34.453125 23.378906 -33.523438 22.265625 -31.671875 C 21.160156 -29.828125 20.609375 -27.019531 20.609375 -23.25 C 20.609375 -19.488281 21.160156 -16.695312 22.265625 -14.875 C 23.378906 -13.050781 25.050781 -12.140625 27.28125 -12.140625 C 29.550781 -12.140625 31.242188 -13.050781 32.359375 -14.875 C 33.472656 -16.695312 34.03125 -19.488281 34.03125 -23.25 Z M 34.03125 -23.25"/></g></g></g><g fill-opacity="1" fill="#212636"><g transform="translate(245.732662, 126.854281)"><g><path d="M 23.9375 -24.96875 L 23.9375 0 L 6.84375 0 L 6.84375 -46.59375 L 23.9375 -46.59375 L 23.9375 -41.046875 L 24.28125 -40.78125 C 26.394531 -43.226562 28.40625 -44.960938 30.3125 -45.984375 C 32.21875 -47.015625 34.253906 -47.53125 36.421875 -47.53125 C 36.992188 -47.53125 37.59375 -47.5 38.21875 -47.4375 C 38.84375 -47.382812 39.523438 -47.273438 40.265625 -47.109375 L 40.265625 -29.578125 C 39.179688 -29.753906 38.425781 -29.851562 38 -29.875 C 37.570312 -29.90625 37.1875 -29.921875 36.84375 -29.921875 C 33.539062 -29.921875 30.878906 -29.535156 28.859375 -28.765625 C 26.835938 -27.992188 25.195312 -26.726562 23.9375 -24.96875 Z M 23.9375 -24.96875"/></g></g></g><g fill-opacity="1" fill="#212636"><g transform="translate(287.699148, 126.854281)"><g><path d="M 40.1875 -1.109375 C 38.300781 -0.421875 36.332031 0.078125 34.28125 0.390625 C 32.226562 0.703125 30.117188 0.859375 27.953125 0.859375 C 22.140625 0.859375 17.566406 -0.664062 14.234375 -3.71875 C 10.898438 -6.769531 9.234375 -10.972656 9.234375 -16.328125 L 9.234375 -33.765625 L 1.703125 -33.765625 L 1.703125 -46.59375 L 9.234375 -46.59375 L 9.234375 -58.90625 L 26.328125 -58.90625 L 26.328125 -46.59375 L 39.328125 -46.59375 L 39.328125 -33.765625 L 26.328125 -33.765625 L 26.328125 -21.796875 C 26.328125 -18.722656 26.796875 -16.628906 27.734375 -15.515625 C 28.679688 -14.398438 30.296875 -13.84375 32.578125 -13.84375 C 33.546875 -13.84375 34.671875 -13.941406 35.953125 -14.140625 C 37.234375 -14.347656 38.644531 -14.648438 40.1875 -15.046875 Z M 40.1875 -1.109375"/></g></g></g><g fill-opacity="1" fill="#212636"><g transform="translate(330.466467, 126.854281)"><g/></g></g><g fill-opacity="1" fill="#212636"><g transform="translate(77.399424, 213.72126)"><g><path d="M 50.78125 -20 C 50.78125 -13.164062 48.472656 -7.976562 43.859375 -4.4375 C 39.242188 -0.90625 32.460938 0.859375 23.515625 0.859375 C 19.921875 0.859375 16.582031 0.597656 13.5 0.078125 C 10.425781 -0.429688 7.351562 -1.226562 4.28125 -2.3125 L 4.28125 -18.21875 C 7.070312 -16.613281 10.144531 -15.382812 13.5 -14.53125 C 16.863281 -13.675781 20.285156 -13.25 23.765625 -13.25 C 26.503906 -13.25 28.554688 -13.675781 29.921875 -14.53125 C 31.296875 -15.382812 31.984375 -16.664062 31.984375 -18.375 C 31.984375 -19.570312 31.425781 -20.671875 30.3125 -21.671875 C 29.195312 -22.671875 26.675781 -23.96875 22.75 -25.5625 C 18.976562 -27.15625 16.195312 -28.476562 14.40625 -29.53125 C 12.613281 -30.59375 11.0625 -31.75 9.75 -33 C 7.925781 -34.769531 6.554688 -36.78125 5.640625 -39.03125 C 4.734375 -41.28125 4.28125 -43.800781 4.28125 -46.59375 C 4.28125 -52.75 6.53125 -57.535156 11.03125 -60.953125 C 15.53125 -64.378906 21.828125 -66.09375 29.921875 -66.09375 C 33.234375 -66.09375 36.484375 -65.765625 39.671875 -65.109375 C 42.859375 -64.453125 45.625 -63.523438 47.96875 -62.328125 L 47.96875 -45.578125 C 45.738281 -47.453125 42.972656 -48.945312 39.671875 -50.0625 C 36.367188 -51.175781 33.035156 -51.734375 29.671875 -51.734375 C 27.273438 -51.734375 25.503906 -51.40625 24.359375 -50.75 C 23.222656 -50.09375 22.65625 -49.078125 22.65625 -47.703125 C 22.65625 -46.398438 23.265625 -45.191406 24.484375 -44.078125 C 25.710938 -42.960938 28.4375 -41.492188 32.65625 -39.671875 C 36.25 -38.128906 38.914062 -36.859375 40.65625 -35.859375 C 42.394531 -34.867188 43.890625 -33.832031 45.140625 -32.75 C 47.023438 -31.039062 48.4375 -29.128906 49.375 -27.015625 C 50.3125 -24.910156 50.78125 -22.570312 50.78125 -20 Z M 50.78125 -20"/></g></g></g><g fill-opacity="1" fill="#212636"><g transform="translate(132.443054, 213.72126)"><g><path d="M 23.9375 -32.234375 L 23.9375 0 L 6.84375 0 L 6.84375 -46.59375 L 23.9375 -46.59375 L 23.9375 -42.75 L 24.28125 -42.5 C 26.445312 -44.257812 28.597656 -45.535156 30.734375 -46.328125 C 32.867188 -47.128906 35.164062 -47.53125 37.625 -47.53125 C 40.070312 -47.53125 42.207031 -47.101562 44.03125 -46.25 C 45.851562 -45.394531 47.335938 -44.113281 48.484375 -42.40625 C 50.765625 -44.113281 53.1875 -45.394531 55.75 -46.25 C 58.3125 -47.101562 61.046875 -47.53125 63.953125 -47.53125 C 68.628906 -47.53125 72.160156 -46.207031 74.546875 -43.5625 C 76.941406 -40.914062 78.140625 -37 78.140625 -31.8125 L 78.140625 0 L 61.046875 0 L 61.046875 -28.46875 C 61.046875 -30.632812 60.773438 -32.144531 60.234375 -33 C 59.691406 -33.851562 58.738281 -34.28125 57.375 -34.28125 C 56.40625 -34.28125 55.40625 -34.109375 54.375 -33.765625 C 53.351562 -33.429688 52.242188 -32.921875 51.046875 -32.234375 L 51.046875 0 L 33.9375 0 L 33.9375 -28.46875 C 33.9375 -30.632812 33.664062 -32.144531 33.125 -33 C 32.582031 -33.851562 31.601562 -34.28125 30.1875 -34.28125 C 29.101562 -34.28125 27.988281 -34.09375 26.84375 -33.71875 C 25.707031 -33.351562 24.738281 -32.859375 23.9375 -32.234375 Z M 23.9375 -32.234375"/></g></g></g><g fill-opacity="1" fill="#212636"><g transform="translate(217.40172, 213.72126)"><g><path d="M 30.953125 -4.53125 C 28.898438 -2.476562 26.914062 -1.050781 25 -0.25 C 23.09375 0.539062 20.882812 0.9375 18.375 0.9375 C 13.988281 0.9375 10.539062 -0.382812 8.03125 -3.03125 C 5.53125 -5.6875 4.28125 -9.238281 4.28125 -13.6875 C 4.28125 -18.582031 6.085938 -22.226562 9.703125 -24.625 C 13.328125 -27.019531 18.84375 -28.21875 26.25 -28.21875 L 29.234375 -28.21875 C 29.296875 -28.382812 29.328125 -28.566406 29.328125 -28.765625 C 29.328125 -28.960938 29.328125 -29.40625 29.328125 -30.09375 C 29.328125 -31.632812 28.6875 -32.757812 27.40625 -33.46875 C 26.125 -34.1875 24.140625 -34.546875 21.453125 -34.546875 C 19.234375 -34.546875 17.15625 -34.359375 15.21875 -33.984375 C 13.28125 -33.617188 11 -32.953125 8.375 -31.984375 L 8.375 -45.40625 C 10.71875 -46.082031 13.195312 -46.59375 15.8125 -46.9375 C 18.4375 -47.28125 21.203125 -47.453125 24.109375 -47.453125 C 32.085938 -47.453125 37.769531 -45.738281 41.15625 -42.3125 C 44.550781 -38.894531 46.25 -33.3125 46.25 -25.5625 L 46.25 0 L 33 0 L 31.296875 -4.453125 Z M 27.359375 -19.5 C 25.023438 -19.5 23.328125 -19.125 22.265625 -18.375 C 21.210938 -17.632812 20.6875 -16.351562 20.6875 -14.53125 C 20.6875 -13.164062 21.03125 -12.113281 21.71875 -11.375 C 22.40625 -10.632812 23.34375 -10.265625 24.53125 -10.265625 C 25.789062 -10.265625 27.03125 -10.5625 28.25 -11.15625 C 29.476562 -11.757812 30.320312 -12.457031 30.78125 -13.25 L 30.78125 -19.5 Z M 27.359375 -19.5"/></g></g></g><g fill-opacity="1" fill="#212636"><g transform="translate(269.624783, 213.72126)"><g><path d="M 23.9375 -24.96875 L 23.9375 0 L 6.84375 0 L 6.84375 -46.59375 L 23.9375 -46.59375 L 23.9375 -41.046875 L 24.28125 -40.78125 C 26.394531 -43.226562 28.40625 -44.960938 30.3125 -45.984375 C 32.21875 -47.015625 34.253906 -47.53125 36.421875 -47.53125 C 36.992188 -47.53125 37.59375 -47.5 38.21875 -47.4375 C 38.84375 -47.382812 39.523438 -47.273438 40.265625 -47.109375 L 40.265625 -29.578125 C 39.179688 -29.753906 38.425781 -29.851562 38 -29.875 C 37.570312 -29.90625 37.1875 -29.921875 36.84375 -29.921875 C 33.539062 -29.921875 30.878906 -29.535156 28.859375 -28.765625 C 26.835938 -27.992188 25.195312 -26.726562 23.9375 -24.96875 Z M 23.9375 -24.96875"/></g></g></g><g fill-opacity="1" fill="#212636"><g transform="translate(311.591268, 213.72126)"><g><path d="M 40.1875 -1.109375 C 38.300781 -0.421875 36.332031 0.078125 34.28125 0.390625 C 32.226562 0.703125 30.117188 0.859375 27.953125 0.859375 C 22.140625 0.859375 17.566406 -0.664062 14.234375 -3.71875 C 10.898438 -6.769531 9.234375 -10.972656 9.234375 -16.328125 L 9.234375 -33.765625 L 1.703125 -33.765625 L 1.703125 -46.59375 L 9.234375 -46.59375 L 9.234375 -58.90625 L 26.328125 -58.90625 L 26.328125 -46.59375 L 39.328125 -46.59375 L 39.328125 -33.765625 L 26.328125 -33.765625 L 26.328125 -21.796875 C 26.328125 -18.722656 26.796875 -16.628906 27.734375 -15.515625 C 28.679688 -14.398438 30.296875 -13.84375 32.578125 -13.84375 C 33.546875 -13.84375 34.671875 -13.941406 35.953125 -14.140625 C 37.234375 -14.347656 38.644531 -14.648438 40.1875 -15.046875 Z M 40.1875 -1.109375"/></g></g></g></svg>