<svg xmlns="http://www.w3.org/2000/svg" xmlns:xlink="http://www.w3.org/1999/xlink" width="500" zoomAndPan="magnify" viewBox="0 0 375 374.999991" height="500" preserveAspectRatio="xMidYMid meet" version="1.0"><defs><g/><clipPath id="df0e08568c"><path d="M 48 101 L 124 101 L 124 176 L 48 176 Z M 48 101 " clip-rule="nonzero"/></clipPath><clipPath id="936a606d0f"><path d="M 12.8125 137.078125 L 84.558594 65.335938 L 123.0625 103.839844 L 51.316406 175.582031 Z M 12.8125 137.078125 " clip-rule="nonzero"/></clipPath><clipPath id="09cdec2cb9"><path d="M 48.667969 101.226562 L 123.023438 103.875 L 51.316406 175.582031 Z M 48.667969 101.226562 " clip-rule="nonzero"/></clipPath><clipPath id="86921bf64a"><path d="M 51 172 L 126 172 L 126 247 L 51 247 Z M 51 172 " clip-rule="nonzero"/></clipPath><clipPath id="05c442b45d"><path d="M 15.589844 208.070312 L 86.886719 136.777344 L 125.390625 175.28125 L 54.097656 246.574219 Z M 15.589844 208.070312 " clip-rule="nonzero"/></clipPath><clipPath id="a456919700"><path d="M 51.179688 172.480469 L 125.273438 175.398438 L 54.097656 246.574219 Z M 51.179688 172.480469 " clip-rule="nonzero"/></clipPath></defs><rect x="-37.5" width="450" fill="#ffffff" y="-37.499999" height="449.999989" fill-opacity="1"/><rect x="-37.5" width="450" fill="#000000" y="-37.499999" height="449.999989" fill-opacity="1"/><g clip-path="url(#df0e08568c)"><g clip-path="url(#936a606d0f)"><g clip-path="url(#09cdec2cb9)"><path fill="#8c52ff" d="M 12.8125 137.078125 L 84.558594 65.335938 L 123.0625 103.839844 L 51.316406 175.582031 Z M 12.8125 137.078125 " fill-opacity="1" fill-rule="nonzero"/></g></g></g><g clip-path="url(#86921bf64a)"><g clip-path="url(#05c442b45d)"><g clip-path="url(#a456919700)"><path fill="#8c52ff" d="M 15.589844 208.070312 L 86.734375 136.925781 L 125.238281 175.433594 L 54.097656 246.574219 Z M 15.589844 208.070312 " fill-opacity="1" fill-rule="nonzero"/></g></g></g><g fill="#ffffff" fill-opacity="1"><g transform="translate(80.75206, 157.813403)"><g><path d="M 45.0625 -17.75 C 45.0625 -11.675781 43.007812 -7.070312 38.90625 -3.9375 C 34.8125 -0.800781 28.796875 0.765625 20.859375 0.765625 C 17.671875 0.765625 14.710938 0.535156 11.984375 0.078125 C 9.253906 -0.378906 6.523438 -1.085938 3.796875 -2.046875 L 3.796875 -16.15625 C 6.273438 -14.738281 9.003906 -13.648438 11.984375 -12.890625 C 14.972656 -12.140625 18.007812 -11.765625 21.09375 -11.765625 C 23.519531 -11.765625 25.335938 -12.140625 26.546875 -12.890625 C 27.765625 -13.648438 28.375 -14.789062 28.375 -16.3125 C 28.375 -17.375 27.878906 -18.347656 26.890625 -19.234375 C 25.898438 -20.117188 23.660156 -21.269531 20.171875 -22.6875 C 16.835938 -24.101562 14.375 -25.273438 12.78125 -26.203125 C 11.1875 -27.140625 9.804688 -28.164062 8.640625 -29.28125 C 7.023438 -30.851562 5.8125 -32.632812 5 -34.625 C 4.195312 -36.625 3.796875 -38.863281 3.796875 -41.34375 C 3.796875 -46.800781 5.789062 -51.046875 9.78125 -54.078125 C 13.78125 -57.117188 19.367188 -58.640625 26.546875 -58.640625 C 29.484375 -58.640625 32.367188 -58.347656 35.203125 -57.765625 C 38.035156 -57.179688 40.488281 -56.359375 42.5625 -55.296875 L 42.5625 -40.4375 C 40.582031 -42.101562 38.125 -43.425781 35.1875 -44.40625 C 32.257812 -45.394531 29.304688 -45.890625 26.328125 -45.890625 C 24.203125 -45.890625 22.632812 -45.597656 21.625 -45.015625 C 20.613281 -44.441406 20.109375 -43.546875 20.109375 -42.328125 C 20.109375 -41.160156 20.648438 -40.082031 21.734375 -39.09375 C 22.816406 -38.113281 25.234375 -36.816406 28.984375 -35.203125 C 32.160156 -33.835938 34.519531 -32.710938 36.0625 -31.828125 C 37.613281 -30.941406 38.941406 -30.015625 40.046875 -29.046875 C 41.722656 -27.535156 42.976562 -25.84375 43.8125 -23.96875 C 44.644531 -22.101562 45.0625 -20.03125 45.0625 -17.75 Z M 45.0625 -17.75 "/></g></g></g><g fill="#ffffff" fill-opacity="1"><g transform="translate(129.58974, 157.813403)"><g><path d="M 21.234375 -1.140625 L 21.234375 17 L 6.0625 17 L 6.0625 -41.34375 L 21.234375 -41.34375 L 21.234375 -38.3125 L 21.46875 -38.15625 C 22.675781 -39.46875 24.164062 -40.460938 25.9375 -41.140625 C 27.707031 -41.828125 29.65625 -42.171875 31.78125 -42.171875 C 36.488281 -42.171875 40.28125 -40.238281 43.15625 -36.375 C 46.039062 -32.507812 47.484375 -27.488281 47.484375 -21.3125 C 47.484375 -14.6875 45.953125 -9.335938 42.890625 -5.265625 C 39.835938 -1.203125 35.734375 0.828125 30.578125 0.828125 C 29.109375 0.828125 27.578125 0.625 25.984375 0.21875 C 24.390625 -0.175781 22.9375 -0.703125 21.625 -1.359375 Z M 25.640625 -30.640625 C 24.679688 -30.640625 23.820312 -30.453125 23.0625 -30.078125 C 22.300781 -29.703125 21.691406 -29.160156 21.234375 -28.453125 L 21.234375 -11.90625 C 21.742188 -11.550781 22.363281 -11.285156 23.09375 -11.109375 C 23.832031 -10.929688 24.582031 -10.84375 25.34375 -10.84375 C 27.5625 -10.84375 29.273438 -11.710938 30.484375 -13.453125 C 31.703125 -15.203125 32.3125 -17.644531 32.3125 -20.78125 C 32.3125 -23.820312 31.726562 -26.222656 30.5625 -27.984375 C 29.40625 -29.753906 27.765625 -30.640625 25.640625 -30.640625 Z M 25.640625 -30.640625 "/></g></g></g><g fill="#ffffff" fill-opacity="1"><g transform="translate(180.095806, 157.813403)"><g><path d="M 45.4375 -20.640625 C 45.4375 -14.015625 43.539062 -8.789062 39.75 -4.96875 C 35.957031 -1.144531 30.773438 0.765625 24.203125 0.765625 C 17.628906 0.765625 12.457031 -1.144531 8.6875 -4.96875 C 4.914062 -8.789062 3.03125 -14.015625 3.03125 -20.640625 C 3.03125 -27.265625 4.914062 -32.5 8.6875 -36.34375 C 12.457031 -40.1875 17.628906 -42.109375 24.203125 -42.109375 C 30.773438 -42.109375 35.957031 -40.1875 39.75 -36.34375 C 43.539062 -32.5 45.4375 -27.265625 45.4375 -20.640625 Z M 30.1875 -20.640625 C 30.1875 -23.972656 29.691406 -26.460938 28.703125 -28.109375 C 27.722656 -29.753906 26.222656 -30.578125 24.203125 -30.578125 C 22.222656 -30.578125 20.738281 -29.753906 19.75 -28.109375 C 18.769531 -26.460938 18.28125 -23.972656 18.28125 -20.640625 C 18.28125 -17.296875 18.769531 -14.8125 19.75 -13.1875 C 20.738281 -11.570312 22.222656 -10.765625 24.203125 -10.765625 C 26.222656 -10.765625 27.722656 -11.570312 28.703125 -13.1875 C 29.691406 -14.8125 30.1875 -17.296875 30.1875 -20.640625 Z M 30.1875 -20.640625 "/></g></g></g><g fill="#ffffff" fill-opacity="1"><g transform="translate(228.554304, 157.813403)"><g><path d="M 21.234375 -22.15625 L 21.234375 0 L 6.0625 0 L 6.0625 -41.34375 L 21.234375 -41.34375 L 21.234375 -36.40625 L 21.546875 -36.1875 C 23.410156 -38.363281 25.191406 -39.90625 26.890625 -40.8125 C 28.585938 -41.71875 30.394531 -42.171875 32.3125 -42.171875 C 32.820312 -42.171875 33.351562 -42.144531 33.90625 -42.09375 C 34.46875 -42.050781 35.078125 -41.953125 35.734375 -41.796875 L 35.734375 -26.25 C 34.765625 -26.394531 34.09375 -26.476562 33.71875 -26.5 C 33.34375 -26.53125 33.003906 -26.546875 32.703125 -26.546875 C 29.765625 -26.546875 27.394531 -26.203125 25.59375 -25.515625 C 23.800781 -24.835938 22.347656 -23.71875 21.234375 -22.15625 Z M 21.234375 -22.15625 "/></g></g></g><g fill="#ffffff" fill-opacity="1"><g transform="translate(265.789236, 157.813403)"><g><path d="M 35.65625 -0.984375 C 33.988281 -0.378906 32.242188 0.0625 30.421875 0.34375 C 28.597656 0.625 26.726562 0.765625 24.8125 0.765625 C 19.644531 0.765625 15.582031 -0.585938 12.625 -3.296875 C 9.664062 -6.003906 8.1875 -9.734375 8.1875 -14.484375 L 8.1875 -29.96875 L 1.515625 -29.96875 L 1.515625 -41.34375 L 8.1875 -41.34375 L 8.1875 -52.265625 L 23.359375 -52.265625 L 23.359375 -41.34375 L 34.890625 -41.34375 L 34.890625 -29.96875 L 23.359375 -29.96875 L 23.359375 -19.34375 C 23.359375 -16.613281 23.773438 -14.753906 24.609375 -13.765625 C 25.453125 -12.785156 26.882812 -12.296875 28.90625 -12.296875 C 29.757812 -12.296875 30.753906 -12.378906 31.890625 -12.546875 C 33.035156 -12.722656 34.289062 -12.988281 35.65625 -13.34375 Z M 35.65625 -0.984375 "/></g></g></g><g fill="#ffffff" fill-opacity="1"><g transform="translate(303.73471, 157.813403)"><g/></g></g><g fill="#ffffff" fill-opacity="1"><g transform="translate(82.734549, 229.714067)"><g><path d="M 45.0625 -17.75 C 45.0625 -11.675781 43.007812 -7.070312 38.90625 -3.9375 C 34.8125 -0.800781 28.796875 0.765625 20.859375 0.765625 C 17.671875 0.765625 14.710938 0.535156 11.984375 0.078125 C 9.253906 -0.378906 6.523438 -1.085938 3.796875 -2.046875 L 3.796875 -16.15625 C 6.273438 -14.738281 9.003906 -13.648438 11.984375 -12.890625 C 14.972656 -12.140625 18.007812 -11.765625 21.09375 -11.765625 C 23.519531 -11.765625 25.335938 -12.140625 26.546875 -12.890625 C 27.765625 -13.648438 28.375 -14.789062 28.375 -16.3125 C 28.375 -17.375 27.878906 -18.347656 26.890625 -19.234375 C 25.898438 -20.117188 23.660156 -21.269531 20.171875 -22.6875 C 16.835938 -24.101562 14.375 -25.273438 12.78125 -26.203125 C 11.1875 -27.140625 9.804688 -28.164062 8.640625 -29.28125 C 7.023438 -30.851562 5.8125 -32.632812 5 -34.625 C 4.195312 -36.625 3.796875 -38.863281 3.796875 -41.34375 C 3.796875 -46.800781 5.789062 -51.046875 9.78125 -54.078125 C 13.78125 -57.117188 19.367188 -58.640625 26.546875 -58.640625 C 29.484375 -58.640625 32.367188 -58.347656 35.203125 -57.765625 C 38.035156 -57.179688 40.488281 -56.359375 42.5625 -55.296875 L 42.5625 -40.4375 C 40.582031 -42.101562 38.125 -43.425781 35.1875 -44.40625 C 32.257812 -45.394531 29.304688 -45.890625 26.328125 -45.890625 C 24.203125 -45.890625 22.632812 -45.597656 21.625 -45.015625 C 20.613281 -44.441406 20.109375 -43.546875 20.109375 -42.328125 C 20.109375 -41.160156 20.648438 -40.082031 21.734375 -39.09375 C 22.816406 -38.113281 25.234375 -36.816406 28.984375 -35.203125 C 32.160156 -33.835938 34.519531 -32.710938 36.0625 -31.828125 C 37.613281 -30.941406 38.941406 -30.015625 40.046875 -29.046875 C 41.722656 -27.535156 42.976562 -25.84375 43.8125 -23.96875 C 44.644531 -22.101562 45.0625 -20.03125 45.0625 -17.75 Z M 45.0625 -17.75 "/></g></g></g><g fill="#ffffff" fill-opacity="1"><g transform="translate(131.572229, 229.714067)"><g><path d="M 21.234375 -28.59375 L 21.234375 0 L 6.0625 0 L 6.0625 -41.34375 L 21.234375 -41.34375 L 21.234375 -37.921875 L 21.546875 -37.703125 C 23.460938 -39.265625 25.367188 -40.398438 27.265625 -41.109375 C 29.160156 -41.816406 31.195312 -42.171875 33.375 -42.171875 C 35.550781 -42.171875 37.445312 -41.789062 39.0625 -41.03125 C 40.6875 -40.28125 42.003906 -39.144531 43.015625 -37.625 C 45.035156 -39.144531 47.179688 -40.28125 49.453125 -41.03125 C 51.734375 -41.789062 54.164062 -42.171875 56.75 -42.171875 C 60.894531 -42.171875 64.023438 -40.992188 66.140625 -38.640625 C 68.265625 -36.296875 69.328125 -32.820312 69.328125 -28.21875 L 69.328125 0 L 54.15625 0 L 54.15625 -25.265625 C 54.15625 -27.179688 53.914062 -28.519531 53.4375 -29.28125 C 52.957031 -30.039062 52.113281 -30.421875 50.90625 -30.421875 C 50.039062 -30.421875 49.148438 -30.269531 48.234375 -29.96875 C 47.328125 -29.664062 46.34375 -29.207031 45.28125 -28.59375 L 45.28125 0 L 30.109375 0 L 30.109375 -25.265625 C 30.109375 -27.179688 29.867188 -28.519531 29.390625 -29.28125 C 28.910156 -30.039062 28.039062 -30.421875 26.78125 -30.421875 C 25.820312 -30.421875 24.832031 -30.253906 23.8125 -29.921875 C 22.800781 -29.597656 21.941406 -29.15625 21.234375 -28.59375 Z M 21.234375 -28.59375 "/></g></g></g><g fill="#ffffff" fill-opacity="1"><g transform="translate(206.952144, 229.714067)"><g><path d="M 27.46875 -4.015625 C 25.644531 -2.203125 23.882812 -0.941406 22.1875 -0.234375 C 20.488281 0.472656 18.53125 0.828125 16.3125 0.828125 C 12.414062 0.828125 9.351562 -0.34375 7.125 -2.6875 C 4.90625 -5.039062 3.796875 -8.191406 3.796875 -12.140625 C 3.796875 -16.484375 5.398438 -19.71875 8.609375 -21.84375 C 11.816406 -23.96875 16.707031 -25.03125 23.28125 -25.03125 L 25.9375 -25.03125 C 25.988281 -25.1875 26.015625 -25.351562 26.015625 -25.53125 C 26.015625 -25.707031 26.015625 -26.097656 26.015625 -26.703125 C 26.015625 -28.066406 25.445312 -29.0625 24.3125 -29.6875 C 23.175781 -30.320312 21.421875 -30.640625 19.046875 -30.640625 C 17.066406 -30.640625 15.21875 -30.472656 13.5 -30.140625 C 11.78125 -29.816406 9.757812 -29.226562 7.4375 -28.375 L 7.4375 -40.28125 C 9.507812 -40.882812 11.707031 -41.335938 14.03125 -41.640625 C 16.363281 -41.953125 18.816406 -42.109375 21.390625 -42.109375 C 28.472656 -42.109375 33.519531 -40.585938 36.53125 -37.546875 C 39.539062 -34.515625 41.046875 -29.5625 41.046875 -22.6875 L 41.046875 0 L 29.28125 0 L 27.765625 -3.9375 Z M 24.28125 -17.296875 C 22.207031 -17.296875 20.703125 -16.96875 19.765625 -16.3125 C 18.828125 -15.65625 18.359375 -14.515625 18.359375 -12.890625 C 18.359375 -11.679688 18.660156 -10.75 19.265625 -10.09375 C 19.867188 -9.4375 20.703125 -9.109375 21.765625 -9.109375 C 22.878906 -9.109375 23.976562 -9.375 25.0625 -9.90625 C 26.15625 -10.4375 26.90625 -11.054688 27.3125 -11.765625 L 27.3125 -17.296875 Z M 24.28125 -17.296875 "/></g></g></g><g fill="#ffffff" fill-opacity="1"><g transform="translate(253.287265, 229.714067)"><g><path d="M 21.234375 -22.15625 L 21.234375 0 L 6.0625 0 L 6.0625 -41.34375 L 21.234375 -41.34375 L 21.234375 -36.40625 L 21.546875 -36.1875 C 23.410156 -38.363281 25.191406 -39.90625 26.890625 -40.8125 C 28.585938 -41.71875 30.394531 -42.171875 32.3125 -42.171875 C 32.820312 -42.171875 33.351562 -42.144531 33.90625 -42.09375 C 34.46875 -42.050781 35.078125 -41.953125 35.734375 -41.796875 L 35.734375 -26.25 C 34.765625 -26.394531 34.09375 -26.476562 33.71875 -26.5 C 33.34375 -26.53125 33.003906 -26.546875 32.703125 -26.546875 C 29.765625 -26.546875 27.394531 -26.203125 25.59375 -25.515625 C 23.800781 -24.835938 22.347656 -23.71875 21.234375 -22.15625 Z M 21.234375 -22.15625 "/></g></g></g><g fill="#ffffff" fill-opacity="1"><g transform="translate(290.522197, 229.714067)"><g><path d="M 35.65625 -0.984375 C 33.988281 -0.378906 32.242188 0.0625 30.421875 0.34375 C 28.597656 0.625 26.726562 0.765625 24.8125 0.765625 C 19.644531 0.765625 15.582031 -0.585938 12.625 -3.296875 C 9.664062 -6.003906 8.1875 -9.734375 8.1875 -14.484375 L 8.1875 -29.96875 L 1.515625 -29.96875 L 1.515625 -41.34375 L 8.1875 -41.34375 L 8.1875 -52.265625 L 23.359375 -52.265625 L 23.359375 -41.34375 L 34.890625 -41.34375 L 34.890625 -29.96875 L 23.359375 -29.96875 L 23.359375 -19.34375 C 23.359375 -16.613281 23.773438 -14.753906 24.609375 -13.765625 C 25.453125 -12.785156 26.882812 -12.296875 28.90625 -12.296875 C 29.757812 -12.296875 30.753906 -12.378906 31.890625 -12.546875 C 33.035156 -12.722656 34.289062 -12.988281 35.65625 -13.34375 Z M 35.65625 -0.984375 "/></g></g></g></svg>